<svg viewBox="0 0 400 400" fill="none" xmlns="http://www.w3.org/2000/svg"><path d="M97.758 266.912c-5.073-16.554-2.682-33.993-4.818-50.928-1.818-14.4-5.165-91.958 6.422-103.44 20.665-20.479 174.265-31.8 195.924-3.182 15.729 20.779 12.847 61.524 12.847 85.935 0 26.366 6.171 67.093-14.454 87.528-31.033 30.753-142.877 27.86-184.681 17.506" stroke="#000" stroke-opacity=".9" stroke-width="16" stroke-linecap="round" stroke-linejoin="round"/><path d="M92.353 178.22c15.723-5.467 60.57 3.348 62.312-.322 4.392-9.255 15.66-28.558 43.251-33.859 19.372-3.722 48.217 0 57.505 18.96 45.602 93.089-50.803 120.493-78.332 105.706-24.354-13.081-22.424-30.79-22.424-44.635" stroke="#000" stroke-opacity=".9" stroke-width="16" stroke-linecap="round" stroke-linejoin="round"/><path d="M190.42 185.487c5.189-5.704 15.85-13.329 24.128-11.26 26.089 6.522 25.652 57.286-1.61 62.741-25.6 5.119-44.898-32.246-22.518-43.438M271.379 177.772c6.741-.932 28.455-.135 35.027-1.297M279.81 139.067v-1.724" stroke="#000" stroke-opacity=".9" stroke-width="16" stroke-linecap="round" stroke-linejoin="round"/></svg>