<svg xmlns="http://www.w3.org/2000/svg" style="enable-background:new 0 0 456.935 456.935" xml:space="preserve" viewBox="0 0 456.935 456.935"><path d="M121.806 192.07c-.635-5.329-4.504-10.232-11.699-10.232-23.364 0-46.723-.043-70.074-.787-8.102-.254-11.997 5.825-11.773 11.873-1.356 1.777-2.163 4.098-2.079 6.957 1.965 70.983 11.034 141.582 12.225 212.602.099 5.743 3.666 9.303 8.043 10.694a12.953 12.953 0 0 0 5.814 1.858c19.827 1.533 39.654 3.113 59.481 4.707 2.562.209 4.659-.299 6.385-1.208 6.244.173 12.535-3.585 12.355-11.345-1.717-74.036-5.632-148.002-8.148-222.014-.042-1.13-.251-2.143-.53-3.105zM62.549 402.311c-1.775-65.948-9.615-131.575-11.732-197.516 15.818.363 31.63.513 47.449.538 2.376 66.804 5.685 133.574 7.432 200.395-14.385-1.147-28.763-2.295-43.149-3.417zM66.728 27.292c-.835.089-1.607.271-2.354.477C28.026 29.42 1.824 58.527.067 95.06c-1.752 36.438 31.125 65.76 67.479 65.656 34.325-.1 64.176-26.827 68.914-58.89 6.141-41.53-25.414-79.262-69.732-74.534zm9.069 108.781C16.253 151.736 8.372 52.492 63.171 50.686c1.087.188 2.247.282 3.562.14.401-.04.765-.04 1.161-.071 1.488.096 2.986.201 4.555.437 2.122.314 4.062.129 5.814-.386 45.857 4.887 43.896 73.067-2.466 85.267zM429.917 204.415c-40.248-60.626-106.729-79.247-176.14-65.227-.676-8.559-1.874-17.083-3.133-25.588-.787-5.327-6.719-8.523-12.035-8.539a13.315 13.315 0 0 0-3.011-.099 730.142 730.142 0 0 1-56.221 2.356c-7.32.025-11.194 5.116-11.72 10.549a13.03 13.03 0 0 0-.505 2.783c-6.375 95.859-8.023 191.887-5.708 287.911.219 8.836 8.6 12.492 15.496 11.024 24.72 1.457 49.399 2.147 74.141.741 4.164-.233 7.19-2.092 9.15-4.651 2.25-1.858 3.59-4.733 3.067-8.684-6.038-46.083-42.401-188.378 38.557-186.928.93.167 1.92.262 3.001.213 100.072-4.1 52.187 129.801 56.411 193.28.579 8.658 8.887 12.345 15.671 11.061.955.33 1.96.589 3.072.705a936.021 936.021 0 0 0 63.562 4.708c8.089.325 11.983-5.708 11.766-11.745.34-1.188.543-2.474.457-3.941-4.581-73.436 16.051-146.772-25.878-209.929zm.864 201.465c-15.254-.817-30.473-2.051-45.682-3.61-3.701-79.476 36.511-197.855-77.87-205.531-104.363-.988-79.56 133.683-69.741 200.549-17.285.478-34.553.071-51.828-.787-1.836-88.651-.249-177.295 5.324-265.804 12.454-.241 24.887-.858 37.315-1.732.881 7.132 1.521 14.287 1.592 21.49.03 3.255 1.224 5.767 3.012 7.622 2.087 4.951 7.164 8.663 14.091 6.86 71.6-18.636 132.337 1.392 169.747 63.95 32.346 54.071 9.749 115.307 14.04 176.993z"/></svg>