<svg version="1.0" xmlns="http://www.w3.org/2000/svg" viewBox="0 0 480 480"><path d="M344.2 105.1c-12.1 6-27.8 23-57.2 61.9-16.3 21.7-25.8 32.4-29.1 33.3-5 1.3-10.2-5.5-47.3-61.5-14.6-22-20.6-30.2-23.2-31.9-5.9-3.6-13.5-3.6-35 .1-22.9 3.9-30.9 3.8-39.5-.5-6-2.9-9.3-2.9-12.3.1-2.3 2.2-3 6.2-1.8 8.9 1.2 2.6 8.7 6.8 16.1 9.1 4.3 1.4 5.5 2.6 16.5 17.2 21.2 27.9 81.2 107.7 81.9 108.9.4.7-2.3 4.6-6.5 9.5-4 4.6-11.2 13.3-16 19.3-6.3 8-18.6 20.5-45 45.7-44.9 42.9-49.9 48.6-48.2 55.3.9 3.5 6.7 8.3 11 9.1 7.5 1.4 10.4-.5 28.1-18.4 18.1-18.2 24.9-26.3 45.8-54.2 7.6-10.2 17.7-22.6 22.3-27.5 4.6-5 11.4-12.9 15-17.8l6.5-8.7 2.5 2.2c3.9 3.7 15.1 21.1 25.7 39.8 34.7 61.9 38.8 68 48 70.7 11.5 3.5 57 4.3 68.8 1.3 8.4-2.2 10.9-8.5 6.3-15.8-1.3-2.1-22.6-30.8-47.2-63.8C283.7 235 270 216.1 270 214c0-1.2 27.4-28.8 67.6-68.1 27.6-27.1 31.3-32.3 26.8-38.7-4.1-5.8-11.3-6.6-20.2-2.1zm-141 51.6c13.5 20.3 27.1 40.2 30.2 44.4 5.9 7.9 12.2 13.3 16.9 14.4 1.5.4 2.7 1.2 2.7 1.8 0 2.5 17.8 27.2 60 83.8 33.2 44.2 44.8 60.4 43.8 61-3.3 2.1-45.4.3-49.9-2.1-3.2-1.7-13.2-17.8-30.9-49.5-23.4-41.8-33.1-56.1-41.5-61-2.3-1.4-5.5-4.5-7-6.8-2.9-4.3-50.9-68.2-73.7-98-7.1-9.2-13.1-17.3-13.4-18-.5-1.4 25.2-6.4 33.7-6.6l4.6-.1 24.5 36.7z"/></svg>