<svg xmlns="http://www.w3.org/2000/svg" viewBox="0 0 506.478 506.478" xml:space="preserve"><path d="M418.104 7.473c-1.549-4.773-5.865-7.63-10.893-7.312a11.153 11.153 0 0 0-3.58-.03c-24.795 3.852-48.809 13.353-71.386 28.241-43.31-12.131-89.581-11.41-135.564 2.074C175.034 13.805 149.004 4.076 117.15.717c-4.877-.513-8.652 2.024-9.998 6.414a10.831 10.831 0 0 0-1.389 3.161c-7.368 28.719-7.378 56.594-.041 82.87-37.902 48.357-45.176 98.098-21.607 147.862 18.159 38.351 57.61 67.626 106.026 78.894-4.009 5.52-7.046 11.521-9.069 17.905a50.063 50.063 0 0 1-4.654.224c-19.723 0-33.918-12.35-48.957-25.421-4.232-3.687-8.61-7.49-13.139-11.029-14.353-11.197-29.945-16.641-47.672-16.641-3.182 0-6.49.178-9.641.519-.67 0-1.335.065-1.737.162l-.817.081c-.421.036-.846.071-1.295.127-4.844.686-7.99 4.174-8.028 8.882-.036 4.966 3.562 10.674 9.402 11.582 24.123 7.465 34.573 26.451 45.638 46.551 4.26 7.743 8.673 15.757 13.962 23.236 12.027 17.006 29.714 25.629 52.549 25.629 5.626 0 11.705-.523 18.096-1.555 1.076 14.98-1.163 39.278-23.585 52.766-4.177 2.504-5.964 6.957-4.677 11.608 1.462 5.276 6.231 8.77 11.38 8.074.17.021.404.03.825.03 16.468 0 31.506-4.58 44.044-13.324-3.22 6.804-7.219 12.893-12.096 18.438-2.875 3.266-3.537 7.551-1.762 11.472 1.808 4.011 5.72 6.692 9.724 6.692.79 0 1.579-.102 1.938-.219 26.662 0 47.558-13.624 59.445-38.547 9.775 24.969 27.005 40.965 52.506 48.8 1.097.34 2.188.518 3.255.518 4.17 0 7.811-2.742 9.268-6.987 1.493-4.342.33-9.008-2.89-11.775a80.77 80.77 0 0 1-9.617-19.357c7.866 5.672 17.722 8.541 29.427 8.541 6.724 0 14.219-.954 22.282-2.833 4.778-1.117 7.739-4.794 7.733-9.608-.01-4.895-3.066-9.227-7.394-10.648-1.224-1.305-2.762-2.254-4.58-2.818-27.67-8.708-25.812-39.521-24.166-66.709.284-4.646.549-9.109.65-13.273.396-16.352-.438-37.161-10.015-55.594 60.505-8.887 97.498-35.892 116.266-84.759 18.438-47.984 6.611-108.115-29.396-150.046 4.277-24.708 2.514-49.308-5.24-73.139zm17.94 205.429c-11.237 49.259-50.333 77.284-116.194 83.297-4.031.365-7.271 2.681-8.932 6.347-2.971 4.276-2.707 9.486.68 13.36 15.442 17.661 14.488 44.32 13.568 70.111-.802 22.552-1.63 45.738 8.684 62.942-5.393-4.905-9.109-12.66-11.42-23.613-2.94-13.929-4.088-28.522-5.195-42.645-.903-11.512-1.838-23.42-3.742-34.992-.797-4.84-4.388-7.968-9.15-7.968-3.402 0-6.764 1.564-8.988 4.185-2.082 2.458-2.93 5.606-2.396 8.871 1.701 10.359 2.366 21.327 3.072 32.931.386 6.394.776 12.848 1.36 19.24-.157.635-.264 1.25-.31 1.869-1.503 18.88-2.174 40.472 3.179 61.083-19.951-22.896-20.302-60.342-20.611-93.755-.076-7.82-.137-15.203-.447-22.252-.305-6.692-5.732-10.191-10.942-10.191-2.98 0-5.764 1.122-7.647 3.093-1.818 1.894-2.712 4.438-2.58 7.327.29 6.566.452 13.346.62 20.262.229 9.628.467 19.58 1.061 29.447a10.434 10.434 0 0 0-.797 4.382c.69 24.481-6.5 52.902-28.059 63.724 14.856-30.371 13.606-65.395 12.4-99.33-.154-4.464-.317-8.917-.437-13.34-.188-6.729-5.573-10.248-10.806-10.248-2.973 0-5.771 1.123-7.678 3.078-1.84 1.889-2.767 4.417-2.694 7.312.145 5.343.384 10.791.627 16.29.51 11.608 1.031 23.598.713 35.338a10.698 10.698 0 0 0-.952 2.244c-4.228 14.574-12.865 25.975-24.684 32.835 10.057-19.475 9.575-41.051 7.129-56.229-.104-5.373-4.034-10.933-10.45-10.933-.879 0-1.785.111-2.689.319-8.267 2.006-15.465 2.971-21.995 2.971-22.354 0-36.384-10.897-51.775-40.207-3.021-5.769-6.078-10.994-9.204-15.727 3.156 2.574 6.307 5.286 9.531 8.063 4.223 3.641 8.595 7.404 13.119 10.948 17.659 13.827 36.736 18.515 59.425 14.518 1.371-.243 2.615-.716 3.702-1.396 2.998-1.178 5.032-3.687 5.74-7.104 2.397-11.553 8.277-20.754 17.481-27.365 4.009-2.874 5.542-7.627 4.009-12.396-1.673-5.205-6.525-8.374-11.273-7.338-41.989-5.23-77.805-26.548-100.876-60.08-27.825-40.408-22.755-91.495 13.545-136.661 1.201-1.493 1.986-3.204 2.298-5.001 2.361-2.564 3.09-6.007 1.993-9.595-6.683-21.833-7.485-44.089-2.455-67.966 25.692 3.915 47.172 13.289 63.881 27.875 4.154 3.618 10.273 3.448 14.391-.134 43.81-12.741 86.702-13.025 127.859-.828 2.944 1.222 6.174.823 9.038-1.152 19.312-13.287 39.142-21.955 60.545-26.459 5.032 19.51 5.621 38.303 1.798 57.376a11.092 11.092 0 0 0-.112 3.712c-.305 2.943.69 5.81 2.798 8.112 30.031 32.589 41.421 76.849 31.244 121.443z"/><path d="M325.253 133.396c-4.24 0-8.495.238-12.634.713-1.534-.239-3.189-.099-4.814.452-8.917 3.032-22.576 5.23-40.618 6.521a5.363 5.363 0 0 0-.666.094 6.065 6.065 0 0 0-.675-.094c-18.035-1.295-31.694-3.489-40.616-6.525-1.623-.551-3.283-.686-4.812-.452a111.197 111.197 0 0 0-12.634-.713c-28.833 0-55.276 10.483-70.729 28.048-11.852 13.472-16.815 30.732-14.363 49.904 5.959 46.43 40.423 69.002 105.371 69.002 12.276 0 24.158-.711 35.177-1.473a11.02 11.02 0 0 0 3.275-.742 11.22 11.22 0 0 0 3.28.742c11.01.762 22.887 1.473 35.171 1.473 64.932 0 99.406-22.572 105.367-69.002 2.458-19.172-2.508-36.427-14.365-49.899-15.446-17.56-41.882-28.049-70.715-28.049zm62.708 82.83c-14.681 38.816-47.073 44.052-76.814 44.052-11.035 0-22.358-.828-33.312-1.635l-7.658-.554c-.279-.021-.543-.03-.817-.03-.975 0-1.93.137-2.828.4a10.127 10.127 0 0 0-3.641-.37l-7.663.554c-10.951.807-22.282 1.635-33.316 1.635-29.747 0-62.132-5.235-76.812-44.052-5.164-13.66-4.222-25.74 2.798-35.901 14.246-20.632 48.992-28.183 72.396-25.395.147.015.297.025.551.025 13.266 4.28 31.803 5.994 45.026 6.931l.776-.02.93.005c12.964-.927 31.742-2.668 44.62-6.911l.563-.03c23.435-2.788 58.148 4.763 72.402 25.395 7.019 10.16 7.963 22.241 2.799 35.901z"/><path d="M224.262 190.069c.005-.625.066-1.242-.048-1.882-2.511-14.32-23.262-24.311-32.837-10.971-6.738 9.384-5.319 26.124-2.049 36.47 2.965 9.372 11.481 16.526 21.82 14.343 14.767-3.12 14.013-24.803 13.342-36.467a7.9 7.9 0 0 0-.228-1.493zm-17.264 22.262c-.125-.005-.259.005-.384-.005.145-.033-.675-.183-1.249-.287-1.787-7.432-3.796-17.783-1.043-25.052 1.45-3.859 4.626 7.013 4.659 7.434.502 5.845-.699 12.225-1.983 17.91zM328.259 190.069c.005-.625.066-1.247-.046-1.882-1.975-11.258-11.836-18.288-23.119-16.775-.188.025-.361.079-.544.109-2.193-.149-4.443.63-6.267 2.174-4.493 3.816-7.57 9.933-6.834 15.917.096.744.279 1.457.497 2.143-.649 9.209.574 18.304 3.036 27.23.26.947.666 1.722 1.133 2.412.97 1.925 2.768 3.438 4.967 4.339 5.418 2.219 11.466 2.988 17.143 1.3.757-.231 1.447-.589 2.082-1.006 2.098-.695 3.895-2.308 4.662-5.091 2.641-9.582 4.088-19.426 3.529-29.373a8.577 8.577 0 0 0-.239-1.497zm-17.264 22.262c-.122-.005-.26.005-.381-.005.142-.033-.676-.183-1.265-.287-5.378-1.008-2.082-21.533-.808-24.963 1.468.493 4.312 2.262 4.372 4.08.005.142-.025.261-.015.406.396 7.12-.355 13.937-1.903 20.769z"/></svg>