<svg id="Layer_1" data-name="Layer 1" xmlns="http://www.w3.org/2000/svg" viewBox="0 0 820 85"><defs><style>.cls-1{fill:#10105f;}.cls-2{fill:#ff385c;}</style></defs><path class="cls-1" d="M313.92,6.8c-4,0-6.3,1.34-6.72,3.24s1.76,3.1,5.54,3.77l3.53.67c8.15,1.48,12.16,4.86,11,10.36-1.36,6.54-8.5,10.42-19.23,10.42s-17-3.88-15.45-11.9h9.93c-.48,3.31,2.25,5,6.82,5,4.22,0,7-1.47,7.39-3.57.42-1.93-1.55-3-6.11-3.83l-4.3-.84c-7.12-1.38-11.07-4.31-10-9.54,1.33-6.42,9.22-10.69,19.07-10.69s15.51,4.34,14.21,10.86h-9.95C319.84,8.26,318,6.8,313.92,6.8Z"/><path class="cls-1" d="M327.28,34.83,348.93.39h13.83l7.37,34.44H359l-1.32-7.23H342.8l-4.35,7.23Zm29.21-13.56-2.25-12.2h-.34l-7.32,12.2Z"/><path class="cls-1" d="M394.79.39l6.51,21.32h.5L417.13.39H430l-7.14,34.44H412.74l4.39-21.16h-.36L402.12,34.61h-6.45l-6-21h-.36L384.9,34.83H374.78L381.92.39Z"/><path class="cls-1" d="M449.24.39h10.4l-3,14.56h.57L474.42.39h12.24L468.29,15.76l11.5,19.07H467.36l-7.81-13.54-5.12,4.25-1.93,9.29H442.11Z"/><path class="cls-1" d="M501.64,35.3c-11.91,0-19.76-6.56-17.37-18.13C486.54,6,496.49-.08,507.83-.08c11.82,0,19.67,6.61,17.28,18.23C522.78,29.28,512.87,35.3,501.64,35.3Zm5.79-28.08c-6.57,0-11.38,4-12.76,10.93C493.22,24.7,496.18,28,502,28c6.48,0,11.25-3.9,12.7-10.83C516,10.68,513.33,7.22,507.43,7.22Z"/><path class="cls-2" d="M173.73,50.17h11.49l1.84,22.56h.36l12.05-22.56h9.37l2.77,22.61h.33l11.17-22.61h11.47L215,84.6h-10l-3.38-20.88h-.34L189.1,84.6h-10Z"/><path class="cls-2" d="M241.85,50.17h30l-1.43,6.75H250.82L249.39,64h18.05L266,70.76H248l-1.43,7.08h19.59l-1.43,6.76h-30Z"/><path class="cls-2" d="M281.3,50.17h17.93c9.66,0,14,3.51,12.87,8.71-.86,3.9-4.76,6.65-9.61,7.46l-.09.34c5.21.15,9.05,3.33,8,8.29-1.15,5.56-7.47,9.63-17,9.63h-19.3Zm11.11,27.72c4.45,0,6.89-1.46,7.35-3.88.54-2.64-1.51-4.32-5.52-4.32h-6.62L286,77.89Zm2.14-13.57c3.36,0,6.13-1.43,6.62-3.83s-1.5-3.72-4.92-3.72h-5.92l-1.55,7.55Z"/><path class="cls-2" d="M339.21,50.17h30l-1.43,6.75H348.18L346.75,64h18.06l-1.43,6.77H345.32l-1.43,7.08h19.59l-1.42,6.76h-30Z"/><path class="cls-2" d="M408.12,84.6h-8.81l-13-19.87h-.29L381.92,84.6H371.53l7.14-34.43h8.94L400.46,70h.36l4.07-19.84h10.37Z"/><path class="cls-2" d="M444.07,57a12.46,12.46,0,0,0-12.72,10.34c-1.37,6.63,1.3,10.45,7.73,10.45,5.64,0,9.53-2.31,10.35-5.94h-8.51l1.26-6.07H460.7l-.94,4.56c-1.89,9.24-10.94,14.74-22,14.74-12.3,0-19.27-6.74-17-17.64C423,56.17,433.45,49.69,445,49.69c9.91,0,16.59,4.86,16.19,11.72H450.62C450.29,58.62,448.23,57,444.07,57Z"/><path class="cls-2" d="M476.29,84.6h-10.4L473,50.17h10.39Z"/><path class="cls-2" d="M522.35,84.6h-8.82L500.58,64.73h-.3L496.15,84.6h-10.4l7.14-34.43h8.95L514.69,70H515l4.08-19.84h10.37Z"/><path class="cls-2" d="M539,50.17h30l-1.42,6.75H547.93L546.5,64h18l-1.42,6.77H545.07l-1.43,7.08h19.59L561.8,84.6h-30Z"/><path class="cls-2" d="M578.41,50.17h30L607,56.92H587.38L586,64H604l-1.43,6.77H584.52l-1.42,7.08h19.59l-1.43,6.76h-30Z"/><path class="cls-2" d="M617.87,50.17h17.76c9.68,0,14.76,4.38,13.29,11.46-1,4.75-4.39,8.12-9.49,9.86l6.22,13.11H634.31l-5.42-11.79h-5.31L621.12,84.6H610.73Zm12.2,16.09c4.66,0,7.45-1.43,8.1-4.63s-1.53-4.76-6.15-4.76H626.9l-2,9.39Z"/><polygon class="cls-2" points="746.5 85 666.5 85 671.3 50 746.5 50 746.5 85"/><polygon class="cls-2" points="157.5 85 72.5 85 72.5 50 153.06 50 157.5 85"/><polygon class="cls-1" points="272.5 0 72.5 0 72.5 35 264.53 35 272.5 0"/><polygon class="cls-1" points="546.5 35 746.5 35 746.5 0 554.47 0 546.5 35"/><rect class="cls-1" x="50.5" width="9" height="35"/><rect class="cls-1" x="34.5" width="7" height="35"/><rect class="cls-1" x="21.5" width="5" height="35"/><rect class="cls-1" x="9.5" width="4" height="35"/><rect class="cls-1" x="-0.5" width="3" height="35"/><rect class="cls-2" x="50.5" y="50" width="9" height="35"/><rect class="cls-2" x="34.5" y="50" width="7" height="35"/><rect class="cls-2" x="21.5" y="50" width="5" height="35"/><rect class="cls-2" x="9.5" y="50" width="4" height="35"/><rect class="cls-2" x="-0.5" y="50" width="3" height="35"/><rect class="cls-1" x="759.5" width="9" height="35" transform="translate(1528 35) rotate(-180)"/><rect class="cls-1" x="777.5" width="7" height="35" transform="translate(1562 35) rotate(-180)"/><rect class="cls-1" x="792.5" width="5" height="35" transform="translate(1590 35) rotate(-180)"/><rect class="cls-1" x="805.5" width="4" height="35" transform="translate(1615 35) rotate(-180)"/><rect class="cls-1" x="816.5" width="3" height="35" transform="translate(1636 35) rotate(-180)"/><rect class="cls-2" x="759.5" y="50" width="9" height="35" transform="translate(1528 135) rotate(-180)"/><rect class="cls-2" x="777.5" y="50" width="7" height="35" transform="translate(1562 135) rotate(-180)"/><rect class="cls-2" x="792.5" y="50" width="5" height="35" transform="translate(1590 135) rotate(-180)"/><rect class="cls-2" x="805.5" y="50" width="4" height="35" transform="translate(1615 135) rotate(-180)"/><rect class="cls-2" x="816.5" y="50" width="3" height="35" transform="translate(1636 135) rotate(-180)"/></svg>