<?xml version="1.0" standalone="no"?>
<!DOCTYPE svg PUBLIC "-//W3C//DTD SVG 20010904//EN"
 "http://www.w3.org/TR/2001/REC-SVG-20010904/DTD/svg10.dtd">
<svg version="1.0" xmlns="http://www.w3.org/2000/svg"
 width="700.000000pt" height="700.000000pt" viewBox="0 0 700.000000 700.000000"
 preserveAspectRatio="xMidYMid meet">
<metadata>
Created by potrace 1.11, written by Peter Selinger 2001-2013
</metadata>
<g transform="translate(0.000000,700.000000) scale(0.100000,-0.100000)"
fill="#000000" stroke="none">
<path d="M3367 6980 c-31 -10 -70 -26 -85 -36 -44 -29 -98 -91 -123 -142 -41
-87 -48 -143 -48 -392 0 -251 6 -298 56 -395 63 -121 201 -190 363 -180 179
12 292 105 342 284 16 58 18 98 15 321 -3 218 -6 262 -22 305 -41 114 -118
195 -217 232 -65 23 -211 25 -281 3z"/>
<path d="M1115 5962 c-160 -58 -281 -208 -287 -359 -6 -134 38 -210 241 -416
178 -181 240 -229 335 -259 161 -51 343 30 441 198 69 118 66 230 -10 369 -43
76 -367 399 -435 433 -107 52 -204 64 -285 34z"/>
<path d="M5669 5956 c-95 -33 -134 -64 -321 -254 -138 -139 -173 -180 -198
-233 -80 -172 -53 -306 88 -445 127 -125 296 -146 450 -57 62 36 363 332 413
407 95 141 93 307 -4 430 -121 153 -272 207 -428 152z"/>
<path d="M3427 5444 c-1 -1 -44 -5 -95 -9 -201 -14 -376 -57 -578 -140 -576
-238 -1019 -764 -1150 -1365 -4 -19 -8 -37 -9 -40 -1 -3 -5 -25 -9 -50 -5 -25
-10 -54 -12 -65 -16 -86 -22 -311 -11 -440 7 -71 11 -104 32 -220 3 -16 12
-57 20 -90 22 -84 23 -90 25 -92 3 -3 3 -4 15 -48 13 -50 85 -215 130 -300
206 -387 558 -709 950 -871 33 -14 69 -29 80 -34 27 -12 184 -61 215 -66 14
-3 33 -7 42 -10 10 -3 30 -7 45 -10 16 -3 53 -9 83 -14 219 -38 453 -30 735
25 105 21 275 81 405 144 90 43 227 121 260 148 8 6 38 29 66 50 734 544 984
1552 592 2381 -214 452 -600 811 -1060 986 -116 43 -273 88 -358 101 -25 4
-52 9 -61 10 -51 10 -345 25 -352 19z"/>
<path d="M295 3875 c-136 -36 -226 -109 -266 -214 -59 -159 -19 -360 91 -450
103 -85 167 -99 449 -101 250 -1 319 8 409 54 125 64 199 207 187 367 -14 185
-107 295 -290 343 -79 20 -504 21 -580 1z"/>
<path d="M6142 3880 c-24 -5 -57 -16 -74 -25 -17 -8 -35 -15 -40 -15 -9 0 -70
-43 -93 -65 -29 -27 -73 -105 -85 -150 -8 -27 -14 -88 -14 -135 1 -172 75
-281 236 -348 62 -26 67 -27 328 -29 243 -2 270 0 330 18 174 56 259 166 265
344 7 199 -71 324 -243 387 -52 20 -81 22 -312 24 -140 2 -274 -1 -298 -6z"/>
<path d="M1609 1880 c-105 -33 -141 -60 -325 -242 -148 -147 -187 -192 -213
-245 -41 -82 -46 -102 -45 -188 1 -98 34 -167 121 -254 133 -132 272 -158 431
-81 56 28 96 62 253 219 155 156 190 197 217 252 45 94 53 187 22 271 -72 201
-283 324 -461 268z"/>
<path d="M5224 1885 c-129 -30 -259 -154 -299 -285 -16 -51 -18 -122 -5 -171
29 -108 57 -148 249 -340 161 -161 195 -191 256 -220 65 -31 77 -34 165 -34
116 0 162 20 257 108 73 69 122 160 130 241 7 68 -19 166 -60 234 -45 75 -368
393 -432 424 -101 51 -176 63 -261 43z"/>
<path d="M3412 1159 c-112 -21 -200 -87 -252 -188 -41 -82 -49 -139 -50 -383
0 -202 2 -242 19 -303 31 -110 61 -159 131 -210 63 -46 119 -66 207 -72 185
-13 326 70 388 227 28 71 30 100 30 365 0 282 -6 319 -71 416 -45 68 -80 96
-156 127 -66 26 -169 35 -246 21z"/>
</g>
</svg>
